HIERARCHY
ROOT Hips
{
	OFFSET 0.000000 0.000000 0.000000 
	CHANNELS 6 Xposition Yposition Zposition Yrotation Zrotation Xrotation 
	JOINT Lumbar
	{
		OFFSET 0.000000 0.000000 0.000000 
		CHANNELS 3 Zrotation Xrotation Yrotation
		JOINT Neck
		{
			OFFSET 0.000000 0.445665 0.000000 
			CHANNELS 3 Zrotation Xrotation Yrotation
			End Site
			{
				OFFSET 0.000000 0.227535 0.000000 
			}
		}
		JOINT RightShoulder
		{
			OFFSET 0.019635 0.377685 0.194865 
			CHANNELS 3 Zrotation Xrotation Yrotation
			JOINT RightElbow
			{
				OFFSET 0.000000 -0.243375 0.000000 
				CHANNELS 2 Zrotation Yrotation
				JOINT RightWrist
				{
					OFFSET 0.000000 -0.264825 0.000000 
					CHANNELS 2 Zrotation Xrotation
					End Site
					{
						OFFSET 0.006600 -0.176220 0.000990 
					}
				}
			}
		}
		JOINT LeftShoulder
		{
			OFFSET 0.019635 0.377685 -0.194865 
			CHANNELS 3 Zrotation Xrotation Yrotation
			JOINT LeftElbow
			{
				OFFSET 0.000000 -0.243375 0.000000 
				CHANNELS 2 Zrotation Yrotation
				JOINT LeftWrist
				{
					OFFSET 0.000000 -0.264825 0.000000 
					CHANNELS 2 Zrotation Xrotation
					End Site
					{
						OFFSET 0.006600 -0.176220 -0.000990 
					}
				}
			}
		}
	}
	JOINT RightHip
	{
		OFFSET 0.052140 -0.069960 0.075570 
		CHANNELS 3 Zrotation Xrotation Yrotation
		JOINT RightKnee
		{
			OFFSET 0.000000 -0.402270 0.000000 
			CHANNELS 1 Zrotation
			JOINT RightAnkle
			{
				OFFSET 0.000000 -0.404085 0.000000 
				CHANNELS 3 Zrotation Xrotation Yrotation
				End Site
				{
					OFFSET 0.204105 -0.089430 0.008415 
				}
			}
		}
	}
	JOINT LeftHip
	{
		OFFSET 0.052140 -0.069960 -0.075570 
		CHANNELS 3 Zrotation Xrotation Yrotation
		JOINT LeftKnee
		{
			OFFSET 0.000000 -0.402270 0.000000 
			CHANNELS 1 Zrotation
			JOINT LeftAnkle
			{
				OFFSET 0.000000 -0.404085 0.000000 
				CHANNELS 3 Zrotation Xrotation Yrotation
				End Site
				{
					OFFSET 0.204105 -0.089430 -0.008415 
				}
			}
		}
	}
}
MOTION
Frames: 34
Frame Time: 0.02
1.28911 0.9559 0.61253 792.5406 0 -7.64784 -2.18914 8.92445 5.88514 -35.47225 -5.94098 -2.20624 34.88732 -10.74848 -8.17558 9.39995 81.1813 -3.04956 -3.62338 21.45258 47.86148 -43.16472 90.99374 -80.17084 -1.36893 0.05465 11.11469 8.67272 3.67205 -19.30193 -2.55913 -2.43306 -1.50619 12.04361 4.46277 -6.93988 -69.41308 -5.3424 0.16488 -11.45544
1.29649 0.95771 0.6001 793.01551 0 -7.44373 -2.19723 8.75407 6.38506 -35.40052 -6.07311 -1.83649 37.35978 -11.47402 -7.14795 10.21704 81.15931 -3.30764 -4.12836 21.60603 47.75415 -43.37002 91.05533 -80.17149 -1.34435 0.10302 9.88462 8.57936 3.24281 -18.65393 -2.20925 -2.43369 -1.46302 13.87659 4.14487 -6.38022 -70.14539 -4.8324 0.56305 -9.39699
1.303 0.95962 0.5879 793.39181 0 -7.18231 -2.22749 8.516 6.91973 -35.33804 -6.23776 -1.45522 39.83472 -12.17653 -5.77746 11.20267 81.2382 -3.62457 -4.70035 21.68778 47.68657 -43.4888 91.17617 -80.1848 -1.33868 0.23183 8.56997 8.3977 2.83607 -17.75713 -1.92257 -2.41587 -1.28342 15.46806 3.74013 -5.66984 -69.7605 -3.64883 0.94722 -6.9349
1.30986 0.96143 0.5756 793.81863 0 -6.95167 -2.25103 8.31296 7.43501 -35.26188 -6.38729 -1.08371 42.28549 -12.87996 -4.56948 12.1224 81.36009 -3.9356 -5.24088 21.79965 47.60235 -43.65175 91.26707 -80.19199 -1.32345 0.31526 7.29378 8.26303 2.42828 -16.97358 -1.60443 -2.41049 -1.18476 17.149 3.38583 -5.03733 -69.8056 -2.79169 1.31976 -4.74521
1.31687 0.96349 0.56332 794.21932 0 -6.69722 -2.26296 8.08769 7.9674 -35.22159 -6.53777 -0.69128 44.84163 -13.6299 -3.32294 12.99932 81.10653 -4.15352 -5.78821 21.92048 47.51101 -43.79728 91.37169 -80.1964 -1.31223 0.42857 6.01156 8.09603 1.98582 -16.17539 -1.29464 -2.38854 -1.01265 18.92905 2.97629 -4.3763 -70.18618 -1.8463 1.76425 -2.17344
1.32337 0.96505 0.55104 794.65287 0 -6.48043 -2.30336 7.89415 8.47034 -35.11085 -6.6933 -0.34094 47.17273 -14.27412 -2.07922 14.00573 81.65789 -4.58465 -6.33492 22.00588 47.44379 -43.95698 91.46147 -80.21028 -1.29799 0.50149 4.72448 7.97709 1.61838 -15.35522 -0.98312 -2.39693 -0.95889 20.43661 2.66427 -3.73175 -69.59355 -0.92703 2.05753 -0.30107
1.3287 0.96526 0.53877 795.18787 0 -6.37876 -2.41672 7.80595 8.89962 -34.7976 -6.86582 -0.10256 48.91761 -14.64415 -0.92791 15.31376 84.41794 -5.54578 -6.88074 22.01474 47.4407 -44.18175 91.49518 -80.25993 -1.2604 0.4443 3.44036 8.00738 1.46508 -14.52067 -0.65844 -2.48868 -1.26214 21.29396 2.64658 -3.20602 -66.66689 -0.22787 1.93135 -0.49623
1.33352 0.96496 0.52648 795.76176 0 -6.31789 -2.55754 7.75226 9.29488 -34.41488 -7.04045 0.09166 50.42755 -14.90555 0.20716 16.74828 87.97946 -6.72545 -7.42024 21.99013 47.45949 -44.42247 91.51182 -80.31732 -1.22073 0.34463 2.15618 8.09028 1.38393 -13.67788 -0.32889 -2.61247 -1.68878 21.87599 2.73021 -2.69476 -62.78681 0.4187 1.6552 -1.40301
1.33854 0.96485 0.51417 796.32704 0 -6.24091 -2.68569 7.68285 9.69516 -34.06804 -7.20718 0.30118 52.02227 -15.2081 1.34895 18.13435 91.17147 -7.83746 -7.95126 21.97842 47.46369 -44.65241 91.53657 -80.36332 -1.18895 0.26464 0.87521 8.1531 1.26092 -12.84915 0.00225 -2.72454 -2.0601 22.55444 2.76688 -2.15112 -59.28771 1.07787 1.45139 -1.96161
1.34368 0.96492 0.50202 796.8515 0 -6.15212 -2.81587 7.61182 10.14108 -33.70265 -7.40443 0.53092 53.7143 -15.54487 2.50662 19.48929 94.40293 -8.82794 -8.53272 21.97326 47.48861 -44.89438 91.56214 -80.44196 -1.12935 0.18537 -0.4236 8.19741 1.17633 -11.96465 0.31442 -2.82359 -2.42378 23.34588 2.80607 -1.70885 -55.96065 1.80732 1.22835 -2.61303
1.34845 0.96449 0.48951 797.47035 0 -6.09773 -2.94752 7.55241 10.48296 -33.36006 -7.53804 0.70832 55.14237 -15.78456 3.62164 20.93558 97.72411 -10.11003 -9.00654 21.94829 47.47538 -45.11608 91.58091 -80.45549 -1.12592 0.09396 -1.68243 8.29294 1.02945 -11.20182 0.66908 -2.95814 -2.8342 23.83963 2.86292 -1.06388 -52.0757 2.37031 1.01119 -3.24231
1.35243 0.96283 0.47611 798.35038 0 -6.1343 -3.0807 7.52466 10.54977 -33.0908 -7.49694 0.74824 55.94528 -15.78402 4.6298 22.60819 101.2476 -12.25324 -9.18651 21.86983 47.34853 -45.2791 91.58697 -80.27719 -1.28727 -0.02486 -2.84428 8.52571 0.68505 -10.74468 1.13056 -3.17778 -3.34482 23.58011 2.96471 0.16897 -46.78785 2.4717 0.83677 -3.66583
1.35603 0.96068 0.46232 799.32235 0 -6.20336 -3.2134 7.50631 10.51232 -32.84804 -7.39143 0.73771 56.4822 -15.68877 5.59166 24.36288 104.80798 -14.66232 -9.25811 21.77414 47.18298 -45.42135 91.5862 -80.03481 -1.50368 -0.15399 -3.9625 8.80683 0.27684 -10.41864 1.63623 -3.43271 -3.89791 23.03175 3.07755 1.60007 -40.99869 2.40604 0.67548 -4.03924
1.35975 0.95873 0.44866 800.24656 0 -6.25384 -3.34358 7.47873 10.51965 -32.59751 -7.31404 0.75264 57.11028 -15.63696 6.56951 26.08052 108.2485 -16.87686 -9.37721 21.69148 47.03674 -45.57274 91.58692 -79.82857 -1.68844 -0.276 -5.09204 9.06084 -0.09713 -10.05373 2.12867 -3.6754 -4.43227 22.6155 3.17174 2.92463 -35.50262 2.42403 0.51487 -4.41813
1.36369 0.95686 0.43524 801.19864 0 -6.32145 -3.48673 7.47313 10.53609 -32.32669 -7.241 0.75515 57.85474 -15.58227 7.57193 27.81676 112.14041 -19.40761 -9.50176 21.58621 46.8836 -45.72594 91.59357 -79.59359 -1.90006 -0.40981 -6.25945 9.33918 -0.49076 -9.59664 2.59418 -3.9047 -4.97144 22.18462 3.32596 4.32188 -29.68157 2.41083 0.32072 -4.89392
1.36707 0.95471 0.42119 802.11233 0 -6.361 -3.60183 7.42368 10.51012 -32.10512 -7.14435 0.77236 58.2978 -15.50923 8.50786 29.51309 115.10535 -21.34334 -9.59152 21.52369 46.73585 -45.87018 91.58689 -79.4024 -2.07019 -0.52084 -7.33524 9.57656 -0.85945 -9.3682 3.12386 -4.16795 -5.50533 21.72088 3.35772 5.61039 -24.45033 2.41991 0.20179 -5.1476
1.36909 0.95188 0.40561 802.91239 0 -6.31114 -3.64407 7.24964 10.38442 -32.01582 -6.99167 0.83996 57.96299 -15.43768 9.30875 31.24299 115.35842 -21.53693 -9.59155 21.5895 46.60824 -45.99478 91.54131 -79.35469 -2.09984 -0.56696 -8.1867 9.69731 -1.1458 -9.69713 3.83748 -4.53132 -6.04405 21.22393 3.03665 6.58782 -20.81086 2.56264 0.28584 -4.79009
1.37053 0.94879 0.38937 803.6681 0 -6.23235 -3.65705 7.03134 10.22101 -31.97537 -6.81877 0.92427 57.33582 -15.34632 10.03698 32.90018 114.69255 -21.12492 -9.56342 21.69795 46.48817 -46.11058 91.48335 -79.35221 -2.08771 -0.58934 -8.94263 9.77267 -1.40556 -10.26176 4.60886 -4.92391 -6.56862 20.7074 2.59323 7.4411 -17.81689 2.7287 0.44616 -4.20911
1.37219 0.94582 0.37335 804.43363 0 -6.16936 -3.68045 6.83374 10.08073 -31.91063 -6.65933 1.00352 56.85245 -15.24526 10.77465 34.48058 114.54675 -21.01505 -9.5623 21.7831 46.36715 -46.23084 91.43355 -79.32414 -2.10349 -0.62219 -9.73238 9.86397 -1.67546 -10.74327 5.34482 -5.2941 -7.081 20.2103 2.21375 8.32765 -14.6371 2.86278 0.57333 -3.73358
1.37406 0.9428 0.35767 805.24427 0 -6.09679 -3.71631 6.63343 9.9127 -31.85409 -6.47924 1.07248 56.31918 -15.21877 11.612 36.52127 114.00095 -20.81272 -9.50019 21.88428 46.23389 -46.35013 91.37269 -79.31401 -2.08544 -0.65735 -10.56715 9.9796 -1.95258 -11.11904 6.12926 -5.70721 -7.67842 19.65988 1.80142 9.32244 -10.98564 3.07802 0.69456 -3.24043
1.37533 0.93984 0.34112 805.95143 0 -6.03629 -3.71889 6.42885 9.79338 -31.79361 -6.33868 1.16475 55.81678 -15.0348 12.22287 37.59286 114.03094 -20.64091 -9.55631 21.96228 46.12897 -46.46749 91.33219 -79.27945 -2.12478 -0.68117 -11.27848 10.02963 -2.21152 -11.78063 6.81557 -6.03342 -8.08868 19.21791 1.42593 10.05523 -8.47601 3.13601 0.846 -2.73132
1.37523 0.93694 0.3224 806.36361 0 -6.0213 -3.64003 6.21708 9.83133 -31.69403 -6.30848 1.34134 55.5341 -14.41027 12.24442 35.93561 116.20744 -20.82844 -9.97583 21.96754 46.09667 -46.6002 91.34976 -79.1547 -2.35379 -0.68619 -11.73545 9.93982 -2.38924 -13.07681 7.30237 -6.14753 -8.03819 19.09616 1.20306 10.13409 -8.96981 2.72053 1.06293 -2.23455
1.3745 0.93412 0.30282 806.67603 0 -6.01854 -3.52824 6.00379 9.91775 -31.59161 -6.31984 1.5367 55.28247 -13.63054 12.03685 33.31786 118.93512 -21.04423 -10.50971 21.94796 46.09394 -46.72809 91.38866 -79.00607 -2.63803 -0.6796 -12.05884 9.78016 -2.55409 -14.66998 7.6707 -6.16743 -7.79043 19.08211 1.01807 9.94666 -10.59046 2.15356 1.30707 -1.73026
1.37395 0.93135 0.2836 807.04737 0 -6.00643 -3.42916 5.79503 9.97342 -31.50112 -6.31488 1.70783 54.97637 -12.92912 11.92306 31.18631 121.1898 -21.16038 -10.97273 21.93846 46.07989 -46.84592 91.41843 -78.87664 -2.88269 -0.67345 -12.40362 9.63176 -2.75187 -16.19014 8.03881 -6.20611 -7.5975 19.01057 0.80122 9.85263 -11.69369 1.67826 1.53872 -1.22717
1.37384 0.92821 0.26449 807.36163 0 -6.00852 -3.3379 5.5679 10.0639 -31.36777 -6.29811 1.94533 54.82913 -12.19354 11.8525 28.84436 124.34271 -21.6151 -11.5166 21.93471 46.05556 -47.01439 91.44476 -78.71447 -3.18617 -0.68561 -12.91556 9.56624 -2.84334 -17.45699 8.6434 -6.34334 -7.54853 18.97681 0.63964 9.86515 -12.84587 1.10548 1.77514 -0.72153
1.37268 0.92586 0.24497 807.76945 0 -5.98532 -3.22377 5.38001 10.0947 -31.32194 -6.31634 2.04941 54.36367 -11.49322 11.63581 26.71112 125.77906 -21.38786 -11.91692 21.91358 46.06153 -47.0773 91.48425 -78.61305 -3.38188 -0.6588 -13.04321 9.31468 -3.14236 -19.3189 8.71878 -6.25751 -7.15627 18.88698 0.37641 9.60143 -14.14995 0.70175 2.00509 -0.22743
1.36882 0.92563 0.22435 808.48041 0 -5.88098 -3.04738 5.29473 9.94116 -31.52218 -6.41849 1.77508 53.001 -10.92283 11.09373 25.40997 122.24829 -19.19917 -11.91632 21.84119 46.12672 -46.84197 91.54816 -78.69549 -3.25717 -0.51327 -12.19202 8.54493 -4.11566 -22.74579 7.43423 -5.53546 -5.84023 18.64401 -0.20081 8.57514 -15.64207 0.7819 2.2272 0.27551
1.36395 0.92617 0.20337 809.28634 0 -5.75265 -2.85059 5.25053 9.72687 -31.80979 -6.55461 1.36656 51.32054 -10.39464 10.40844 24.3489 116.99508 -16.34037 -11.76332 21.75354 46.22423 -46.50214 91.62568 -78.83783 -3.02402 -0.33155 -10.95089 7.59515 -5.28159 -26.75768 5.61218 -4.59989 -4.19275 18.33569 -0.8764 7.29141 -17.2365 1.04046 2.43827 0.75762
1.35955 0.92637 0.18265 810.03442 0 -5.6406 -2.66802 5.19151 9.54645 -32.05454 -6.67747 1.02321 49.79423 -9.85043 9.77502 23.16405 112.59273 -13.83715 -11.66459 21.67902 46.31859 -46.21536 91.70169 -78.94569 -2.84682 -0.17578 -9.855 6.74152 -6.29333 -30.50852 3.98232 -3.79062 -2.70951 18.03914 -1.49075 6.17041 -18.75214 1.23104 2.64316 1.22009
1.35507 0.92656 0.16149 810.83708 0 -5.50538 -2.46345 5.11541 9.3439 -32.31197 -6.79423 0.6637 48.22774 -9.28639 9.19062 22.00578 107.91231 -11.11559 -11.63215 21.57818 46.36661 -45.90481 91.75958 -79.08308 -2.64336 0.02015 -8.88538 5.82278 -7.57993 -34.26369 2.54846 -2.85545 -1.15096 17.82238 -2.17424 4.85247 -20.44474 1.36339 2.89664 1.80537
1.35052 0.92694 0.14119 811.55487 0 -5.41366 -2.30022 5.08558 9.16907 -32.56447 -6.92916 0.30468 46.66909 -8.77704 8.47152 20.86395 103.40659 -8.6937 -11.42519 21.528 46.51678 -45.61919 91.85707 -79.17386 -2.46816 0.14134 -7.56691 5.00047 -8.34755 -38.12716 0.60505 -2.1319 0.31317 17.42206 -2.73684 3.88019 -21.77719 1.6584 3.04551 2.13036
1.34601 0.92756 0.1233 811.97258 0 -5.43852 -2.25736 5.16556 9.11468 -32.77538 -7.12344 -0.01076 45.2098 -8.3981 7.43194 19.69495 99.70355 -7.22675 -10.76273 21.62879 46.95512 -45.42599 92.06987 -79.11859 -2.39678 0.04304 -5.33868 4.4665 -7.56783 -42.29274 -2.82764 -2.05532 1.55265 16.5342 -2.94763 3.98663 -22.093 2.38526 2.91139 1.73606
1.34147 0.92835 0.10631 812.30965 0 -5.50948 -2.25696 5.2919 9.08514 -32.97915 -7.33138 -0.32251 43.76895 -8.07568 6.26113 18.54213 96.25195 -6.09107 -9.93165 21.77966 47.49221 -45.26166 92.32028 -79.01515 -2.3572 -0.131 -2.78175 4.04035 -6.27055 -46.51557 -6.71499 -2.19782 2.66361 15.46281 -3.03238 4.44023 -22.03658 3.2656 2.67162 1.08147
1.33695 0.9291 0.08893 812.71252 0 -5.56574 -2.23628 5.4026 9.02429 -33.19103 -7.52134 -0.64278 42.31998 -7.73458 5.13911 17.39521 92.74898 -4.82783 -9.18395 21.90316 47.97503 -45.08576 92.54721 -78.93541 -2.3036 -0.26761 -0.40294 3.57951 -5.25586 -50.61825 -10.25228 -2.23341 3.75451 14.47254 -3.17106 4.69541 -22.14291 4.059 2.47796 0.54974
